<?xml version="1.0" encoding="UTF-8"?>
<svg id="Layer_1" xmlns="http://www.w3.org/2000/svg" version="1.1" viewBox="0 0 1280 1024">
  <!-- Generator: Adobe Illustrator 29.8.1, SVG Export Plug-In . SVG Version: 2.1.1 Build 2)  -->
  <defs>
    <style>
      .st0 {
        fill: #80c242;
      }

      .st1 {
        fill: #006cb6;
      }

      .st2 {
        fill: #2e9d41;
      }

      .st3 {
        fill: #231f20;
      }

      .st4 {
        fill: #0096db;
      }

      .st5 {
        fill: #81c241;
      }
    </style>
  </defs>
  <polygon class="st0" points="1111 351.6 1055.4 351.6 918.7 351.6 918.7 462.9 1055.4 462.9 1055.4 585.3 843.4 585.3 843.4 696.6 1055.4 696.6 1111 696.6 1166.6 696.6 1166.6 351.6 1111 351.6"/>
  <g>
    <rect class="st1" x="478.4" y="351.6" width="111.2" height="510.4"/>
    <polygon class="st1" points="113.4 162 113.4 175.8 113.4 273.2 113.4 351.6 113.4 443.4 113.4 462.9 269.8 462.9 269.8 585.3 113.4 585.3 113.4 696.6 381 696.6 381 619.3 381 585.3 381 462.9 381 351.6 269.8 351.6 224.6 351.6 224.6 273.2 589.6 273.2 589.6 162 113.4 162"/>
  </g>
  <polygon class="st0" points="1163.2 162 686.9 162 686.9 175.8 686.9 273.2 686.9 351.6 686.9 443.4 686.9 862 798.2 862 798.2 443.4 798.2 351.6 798.2 273.2 1163.2 273.2 1163.2 162"/>
  <g>
    <g>
      <path class="st3" d="M919.4,787.8c-2.1-3.2-4.6-6.2-7.7-8.6-5.3-4.2-11.9-6.9-19.9-6.9-16.7,0-33.7,12.6-33.7,35.2s17.1,35.8,33.7,35.8,15.3-2.4,20.6-6.3c5.5-3.9,9.1-9.5,10.7-15.7h-38.7v-16.8h62.8c.3,6.9-.7,17.4-4.6,26.1-9.7,21.6-32,31.1-50.6,31.1-31,0-54.7-24-54.7-54.1s24.7-53.6,55-53.6,44,14.9,50.8,33.8h-23.6Z"/>
      <path class="st3" d="M956.9,808.7c0-33.2,25.5-54.7,54.4-54.7s54.6,24.4,54.6,53.9-23,53.9-54.7,53.9-54.3-25.1-54.3-52.9h0ZM977.8,807.8c0,18.9,13.6,35.5,33.8,35.5s33.4-18.2,33.4-35.3-12.3-35.6-33.5-35.6-33.7,17.1-33.7,35.3h0Z"/>
      <path class="st3" d="M1089.5,774.3h-22.4v-18.4h65.6v18.4h-22.3v85.4h-20.9v-85.4Z"/>
      <path class="st3" d="M1143.6,755.9h20.9v103.8h-20.9v-103.8Z"/>
    </g>
    <g>
      <g>
        <g>
          <path class="st4" d="M989.1,837c-.7-.3-1.3-.7-2-1.1-.6-.4-1.3-.8-2-1.3-.6-.5-1.2-1-1.9-1.5-.3-.3-.6-.5-.9-.8-.3-.3-.6-.6-.9-.9-.6-.6-1.2-1.2-1.8-1.9-.6-.7-1.1-1.4-1.7-2.1-.3-.4-.5-.7-.8-1.1-.3-.4-.5-.8-.7-1.2-.5-.8-1-1.6-1.4-2.5-1.7-3.4-3.1-7.4-3.8-11.7-.6-4.3-.5-9,.6-13.8,1.4-6,4.1-11.2,7.4-15.3,3.3-4.1,7.3-7.2,11.2-9.3.7-.3,1.4-.7,2.1-1,.7-.3,1.4-.6,2.1-.9,1.4-.5,2.8-1,4.2-1.2.9-.2,1.8-.4,2.7-.5.9,0,1.8-.2,2.7-.2.4,0,.9,0,1.3,0,.4,0,.9,0,1.3,0,.8,0,1.7,0,2.5.1.9.1,1.7.3,2.5.4.8.2,1.6.3,2.4.6.6.2,1.2.4,1.7.6.6.2,1.1.4,1.6.6,1.1.5,2.1.9,3,1.5,1.1.7,2.1,1.3,3,2,.8.6,1.5,1.3,2.3,1.9.7.7,1.3,1.4,1.9,2.1.4.4.7.8,1,1.2.3.4.6.8.9,1.2.5.7,1,1.5,1.4,2.3l.6,1.1.5,1.2c.4.9.7,1.7,1,2.6.5,1.6.9,3.3,1.1,4.9,0,.9.2,1.7.2,2.6,0,.4,0,.9,0,1.3,0,.4,0,.8,0,1.3,0,.4,0,.8-.1,1.3v.6s-.2.6-.2.6c-.2.9-.2,1.7-.5,2.6,0,.3-.1.6-.2.8v.4c0,0-.2.4-.2.4-.2.6-.4,1.1-.5,1.7-1.1-2.9-2.7-5.6-4.7-8-1.1-1.2-2.2-2.3-3.5-3.4-1.3-1.1-2.8-2-4.4-2.8-1.7-.8-3.4-1.4-5.1-1.7-1.7-.3-3.4-.5-5-.6-.4,0-.8,0-1.3,0-.2,0-.4,0-.6,0-.2,0-.4,0-.6,0-.4,0-.8,0-1.3.1-.4,0-.8.1-1.2.2-.5,0-.9.2-1.4.3-.5.1-.9.2-1.4.3-.4.1-.9.3-1.4.4-.4.2-.9.3-1.3.5-.3.1-.5.2-.8.3-.2.1-.5.2-.7.4-.5.2-1,.4-1.5.7-.6.4-1.3.7-1.9,1.1-.6.4-1.2.8-1.8,1.3-.4.3-.7.6-1.1.9-.4.3-.8.6-1.1.9-.5.5-1,1-1.6,1.5-.5.6-1,1.1-1.4,1.7-.3.4-.6.7-.8,1.1-.3.4-.5.8-.8,1.2-.5.7-.8,1.3-1.2,2-.4.7-.8,1.4-1.1,2.2-.3.9-.7,1.8-1,2.7-.2.9-.4,1.7-.7,2.7-.2.9-.3,1.8-.4,2.8v.8c0,.3,0,.5,0,.8,0,.6,0,1.1,0,1.7,0,1.1.2,2.2.3,3.3.1,1.1.4,2.2.7,3.4.3,1.3.8,2.5,1.4,3.9.3.7.6,1.3.9,1.9.3.6.7,1.3,1.1,1.9.4.6.9,1.2,1.3,1.9.5.6.9,1.3,1.5,1.9Z"/>
          <path class="st5" d="M1052.4,806.6c1.1,5.8.6,12.8-2.5,19.9-1.6,3.5-3.8,7-6.8,10.2-3,3.2-6.8,6-11.2,8.2-5.6,2.7-11.4,3.8-16.7,3.8-5.3,0-10.2-1.2-14.3-3-2.9-1.3-5.5-2.9-7.7-4.7-3-2.3-5.2-5.1-7-7.8-.9-1.5-1.7-2.9-2.3-4.5-.2-.6-.4-1.1-.7-1.7-.2-.6-.3-1.1-.5-1.7-.1-.6-.3-1.1-.4-1.7-.1-.5-.2-1.1-.3-1.6,0-.6-.2-1.2-.2-1.8,0-.6,0-1.2,0-1.8,0-2,.2-3.9.5-5.7.2-1,.5-2,.7-2.9.6-1.7,1.2-3.3,2.1-4.8.2-.4.4-.8.6-1.2.3-.4.5-.8.8-1.1.5-.7.9-1.4,1.5-2l.8-.9c.3-.3.5-.6.8-.9l1-.9c.3-.3.6-.6,1-.9,1.3-1.1,2.7-2.1,4.2-2.9.4-.2.8-.4,1.2-.6.4-.2.8-.4,1.2-.6.5-.2,1-.5,1.6-.7.6-.2,1.1-.4,1.6-.6-3.1,5.4-4.9,11.4-3.3,18.6.1.4.2.9.3,1.3.2.4.3.9.4,1.3.2.4.4.8.5,1.2.1.4.4.8.6,1.2.8,1.5,1.6,3,2.7,4.2.2.4.6.6.8,1l.4.5c.1.2.3.3.4.4.3.3.6.6.9.9.3.3.6.5.9.8,1.4,1.2,2.9,2.4,4.5,3.2.2.1.5.3.7.4.2.1.5.2.7.4.5.2,1,.5,1.5.7.7.2,1.4.5,2.1.8.7.2,1.4.4,2.1.6.5.2.9.2,1.4.3l1.4.3c1.4.2,2.9.4,4.4.3.5,0,.9,0,1.4,0,.5,0,.9,0,1.4-.1,1.6-.1,3.1-.5,4.7-.9.9-.3,1.8-.6,2.8-.9.8-.4,1.6-.7,2.5-1.2.8-.4,1.6-.9,2.4-1.4,1-.6,1.8-1.3,2.7-2,.9-.7,1.6-1.5,2.4-2.3.8-.8,1.5-1.7,2.2-2.7.8-1.1,1.5-2.2,2.2-3.5.2-.3.3-.6.5-.9.2-.3.3-.7.4-1,.3-.7.5-1.4.8-2.1.5-1.4.8-2.9,1.2-4.5Z"/>
        </g>
        <g>
          <path class="st2" d="M1006,823c-4-1.8-6.8-4.7-8.7-7.6-1.8-3-2.7-5.9-3.1-8.7-.4-2.8-.2-5.2.1-7.3,0-.3,0-.5.1-.8,0-.3.1-.5.2-.7.1-.5.2-1,.3-1.4.1-.4.3-.9.4-1.3,0-.2.1-.4.2-.6,0-.2.1-.4.2-.6.4-.2.8-.4,1.2-.6.4-.2.8-.4,1.2-.6-1.3,2.7-2.7,6.5-2.7,11.3,0,2.4.4,5.1,1.5,7.7.2.3.3.7.5,1l.2.5.3.5c.2.3.4.7.6,1,.2.3.5.6.7,1,1,1.3,2,2.6,3.4,3.6.2.4.6.6.8,1l.4.5c.1.2.3.3.4.4.3.3.6.6.9.9.3.3.6.5.9.8Z"/>
          <path class="st2" d="M1013.4,827.8c-3.5,0-6.9-.8-10.1-2.3-3.2-1.5-6-3.8-8.3-6.6-2.2-2.8-3.8-6.1-4.8-9.6-.9-3.5-1.1-7.2-.6-10.7l1-.9c.3-.3.6-.6,1-.9-1.6,6.5-.4,13.7,3.1,19.2,3.5,5.6,9.5,9.4,15.8,10.1.2.1.5.3.7.4.2.1.5.2.7.4.5.2,1,.5,1.5.7Z"/>
          <path class="st2" d="M1020.4,829.8c-2.6.9-5.3,1.2-7.9,1.3-2.6,0-5.1-.3-7.4-1-4.7-1.3-8.6-3.8-11.6-6.7-3-2.9-5-6.3-6.3-9.5-.2-.4-.3-.8-.5-1.2,0-.2-.2-.4-.2-.6,0-.2-.1-.4-.2-.6-.2-.8-.5-1.6-.6-2.3-.1-.8-.3-1.5-.4-2.2-.1-.7-.1-1.4-.2-2.1.2-.4.4-.8.6-1.2.3-.4.5-.8.8-1.1,0,1.3.1,2.7.2,4.2.1.7.3,1.5.4,2.3.2.8.4,1.5.6,2.3,1,3.1,2.6,6.5,5.2,9.5,2.6,3,6,5.7,10.3,7.3,2.1.8,4.4,1.4,6.8,1.6,2.4.2,5,.1,7.5-.5.5.2.9.2,1.4.3l1.4.3Z"/>
          <path class="st2" d="M1027.6,830c-2.4,1.6-4.9,2.9-7.6,3.7-.3.1-.7.2-1,.3l-1,.2c-.7.1-1.3.3-2,.4-1.4.2-2.7.4-4,.3-5.4.2-10.4-1.3-14.7-3.6-4.3-2.3-7.6-5.5-10.1-8.8-2.5-3.3-4-6.8-4.9-9.9.2-1,.5-2,.7-2.9.6,3,1.8,6.5,3.9,9.9,2.1,3.3,5,6.7,8.9,9.2,3.9,2.5,8.6,4.4,13.7,4.7,1.3.2,2.6,0,3.9,0,.7,0,1.3-.2,2-.2.3,0,.7,0,1-.1l1-.2c.6-.2,1.3-.2,2-.5.6-.2,1.3-.4,1.9-.6,1.2-.5,2.5-1,3.7-1.7.5,0,.9,0,1.4,0,.5,0,.9,0,1.4-.1Z"/>
          <path class="st2" d="M1035.1,828.2c-4.9,5.6-11.3,9-17.5,10.2-.8.2-1.5.3-2.3.4-.8,0-1.5.2-2.3.2-1.5,0-3,.1-4.4,0-.7,0-1.4,0-2.1-.2-.7-.1-1.4-.3-2-.4-.3,0-.7-.1-1-.2-.3,0-.6-.2-1-.3-.6-.2-1.3-.4-1.9-.6-4.9-1.7-8.9-4.3-11.9-7-3-2.7-5.1-5.7-6.6-8.3,0-.6-.2-1.2-.2-1.8,0-.6,0-1.2,0-1.8.5,1.3,1.3,2.5,2,3.9.9,1.3,1.8,2.8,3.1,4.2,2.5,2.9,5.9,5.8,10.4,8,.5.3,1.1.5,1.7.8.6.2,1.2.5,1.8.7.6.2,1.3.4,2,.6.3,0,.7.2,1,.3.3,0,.7.1,1,.2.7.1,1.4.3,2.1.4.7,0,1.5.1,2.2.2.4,0,.7,0,1.1,0,.4,0,.8,0,1.1,0,.8,0,1.5,0,2.3,0,3.1-.3,6.4-1.1,9.6-2.4,3.2-1.4,6.3-3.4,8.9-6,.9-.3,1.8-.6,2.8-.9Z"/>
          <path class="st2" d="M1042.7,823.6c-2.2,4.8-5.8,9.4-10.4,12.8-4.6,3.4-10.2,5.8-16,6.5-5.7.8-11.6.1-16.8-1.7-5.2-1.8-9.7-4.7-13.2-8.1-.9-1.5-1.7-2.9-2.3-4.5,2.7,3.3,6.4,6.6,11,9.1,1.1.7,2.4,1.1,3.7,1.7.6.3,1.3.5,1.9.7.7.2,1.3.4,2,.6.7.2,1.4.3,2.1.4.7.1,1.4.3,2.1.4,1.4.1,2.9.3,4.3.3,5.8,0,11.8-1.4,16.9-4.3,2.6-1.4,4.9-3.3,6.9-5.2,1-1.1,2-2.1,2.8-3.2.4-.6.8-1.1,1.2-1.7.4-.6.7-1.2,1.1-1.8,1-.6,1.8-1.3,2.7-2Z"/>
          <path class="st2" d="M1049.4,815.1c-.4,4.6-2,9.5-4.7,14-2.7,4.5-6.6,8.7-11.4,11.8-4.7,3.1-10.3,5.2-16,5.9-5.6.8-11.3.3-16.4-1.3-2.9-1.3-5.5-2.9-7.7-4.7,4.4,2.5,9.8,4.3,15.6,4.8,5.8.5,11.9-.4,17.5-2.7,5.6-2.3,10.5-5.9,14.1-10.3,3.6-4.4,5.9-9.4,6.8-14.1.8-1.1,1.5-2.2,2.2-3.5Z"/>
        </g>
        <g>
          <path class="st1" d="M1005.2,790.5c1.9-1,3.9-1.6,5.8-1.9,1.9-.3,3.8-.4,5.5-.1.2,0,.4,0,.6,0,.2,0,.4,0,.6.1.4,0,.8.1,1.2.2.8.3,1.6.4,2.3.7.4.1.7.3,1.1.4.3.2.7.3,1,.5.7.3,1.3.7,1.9,1,2.4,1.4,4.2,3.1,5.7,4.7.2.2.4.4.6.6.2.2.3.4.5.6.3.4.6.8.9,1.1.3.4.5.7.8,1.1.1.2.3.3.4.5.1.2.2.3.3.5-.2.9-.3,1.7-.5,2.6-1.3-2.7-3.4-6.2-7.2-9.1-1.9-1.5-4.2-2.9-7-3.6-.3,0-.7-.2-1-.3-.4,0-.7-.1-1.1-.2h-.6c-.2-.1-.4-.1-.6-.2-.4,0-.8,0-1.2-.1-1.6,0-3.3,0-5,.4-.4,0-.8,0-1.3,0-.2,0-.4,0-.6,0-.2,0-.4,0-.6,0-.4,0-.8,0-1.3.1-.4,0-.8.1-1.2.2Z"/>
          <path class="st1" d="M996.8,793.4c2.1-2.7,4.9-4.9,8.1-6.5,3.2-1.5,6.7-2.3,10.3-2.3,3.6,0,7.2.8,10.5,2.2,3.3,1.5,6.3,3.6,8.8,6.2,0,.9.2,1.7.2,2.6-4.2-5.3-10.5-8.9-17-9.6-3.3-.3-6.6,0-9.7,1.1-3.1,1-5.8,2.8-8.1,4.9-.3,0-.5.2-.8.3-.2.1-.5.2-.7.4-.5.2-1,.4-1.5.7Z"/>
          <path class="st1" d="M990.8,797.6c1.9-5.2,5.4-9.4,9.3-12.2,3.9-2.9,8.4-4.3,12.5-4.8,4.2-.5,8.1,0,11.4.9,3.3,1,6.1,2.5,8.3,4,.2.4.4.8.5,1.3.2.4.3.9.4,1.3-2-1.6-4.6-3.3-7.7-4.5-3.1-1.2-6.7-1.9-10.7-1.8-4,.1-8.2,1.1-12.2,3.5-4,2.2-7.5,5.9-9.8,10.5-.4.3-.7.6-1.1.9-.4.3-.8.6-1.1.9Z"/>
          <path class="st1" d="M986.2,803c.2-2.9.9-5.6,1.9-8.2.3-.6.5-1.3.8-1.9.3-.6.6-1.2,1-1.8.3-.6.7-1.1,1.1-1.7l.6-.8.6-.8c3.2-4.3,7.6-7.3,12-9.2,4.4-1.9,9-2.5,13.1-2.4,4.1.2,7.8,1.1,10.8,2.4.7.7,1.2,1.6,1.8,2.4-2.7-1.5-6.2-2.7-10.1-3.2-3.9-.5-8.4-.3-12.8,1.2-.5.2-1.1.4-1.6.6-.6.2-1.1.5-1.6.7-.5.3-1.1.5-1.6.8-.5.3-1,.6-1.6.9-2,1.3-4.1,2.8-5.8,4.8-1.7,1.9-3.3,4-4.5,6.4-.2.3-.3.6-.5.9l-.4.9c-.2.6-.6,1.2-.7,1.9-.2.6-.4,1.3-.6,2-.1.7-.3,1.3-.4,2-.3.4-.6.7-.8,1.1-.3.4-.5.8-.8,1.2Z"/>
          <path class="st1" d="M982.9,810c-1.3-7.3,0-14.4,2.9-20,.7-1.4,1.6-2.7,2.4-4,.4-.6.9-1.2,1.4-1.8.2-.3.5-.6.7-.9.3-.3.5-.5.7-.8.5-.5,1-1,1.5-1.5.5-.5,1.1-.9,1.6-1.4.3-.2.5-.4.8-.7.3-.2.5-.4.8-.6.5-.4,1.1-.8,1.6-1.1,4.4-2.8,8.9-4.2,12.9-4.9,4-.6,7.6-.4,10.7,0,1.1.7,2.1,1.3,3,2-2.6-.6-5.8-1.3-9.6-1.1-3.8.2-8.2,1-12.7,3.1-.6.2-1.1.6-1.7.9-.6.3-1.1.6-1.7,1-.5.4-1.1.8-1.7,1.2-.3.2-.6.4-.8.6-.3.2-.5.5-.8.7-2.2,1.8-4.2,4-6,6.6-3.5,5.2-5.7,12.2-4.9,19.7-.3.9-.7,1.8-1,2.7Z"/>
          <path class="st1" d="M981.8,818.8c-2.4-4.8-3.8-10.4-3.6-16.1.2-5.7,1.9-11.5,4.9-16.5,3-5,7.2-9.1,11.8-12,4.7-2.9,9.8-4.6,14.5-5.2.9.1,1.7.3,2.5.4l1.2.2c.4,0,.8.2,1.2.3-4.2,0-9.2.8-14,2.9-1.2.5-2.4,1.2-3.6,1.8-.6.3-1.2.7-1.7,1.1-.6.4-1.1.8-1.7,1.2-2.2,1.7-4.3,3.6-6.1,5.9-1.9,2.2-3.4,4.8-4.6,7.4-.5,1.4-1.2,2.7-1.5,4.1-.2.7-.4,1.4-.6,2.1l-.4,2.2c-1,5.8-.2,11.7,1.8,16.8-.2,1.1,0,2.2,0,3.3Z"/>
          <path class="st1" d="M984.3,829.3c-3.3-3.2-6.2-7.4-8.1-12.4-1.9-5-2.7-10.6-2.1-16.2.5-5.6,2.4-11.3,5.3-16.1,2.9-4.9,6.9-9,11.2-12,2.8-1.4,5.6-2.5,8.4-3.1-4.7,1.9-9.5,4.9-13.5,9.1-4,4.2-7.1,9.5-8.8,15.3l-.3,1.1c0,.4-.2.7-.2,1.1l-.4,2.2c-.2,1.5-.3,3-.4,4.4,0,1.5,0,2.9.1,4.4,0,.7.2,1.4.3,2.1,0,.7.2,1.4.4,2.1,1.2,5.5,3.7,10.5,6.8,14.2.3,1.3.8,2.5,1.4,3.9Z"/>
        </g>
      </g>
      <path class="st1" d="M1028.9,807.5c-.3-2.5-1.3-4.7-2.9-6.6.1-.2.2-.5.2-.7,0-.8-.7-1.5-1.5-1.5s-.6,0-.8.2c-1.9-1.4-4.1-2.3-6.6-2.6-.2-.6-.7-1.1-1.4-1.1s-1.3.5-1.4,1.1c-2.4.3-4.5,1.3-6.3,2.7-.2-.2-.5-.3-.8-.3-.8,0-1.5.7-1.5,1.5s0,.6.3.8c-1.4,1.8-2.4,3.9-2.7,6.3-.7.1-1.2.7-1.2,1.4s.5,1.3,1.1,1.4c.2,2.4,1.2,4.6,2.6,6.4-.2.2-.3.5-.3.8,0,.8.7,1.5,1.5,1.5s.6,0,.8-.2c1.8,1.5,4,2.5,6.4,2.8.1.7.7,1.2,1.4,1.2s1.3-.5,1.4-1.1c2.5-.2,4.7-1.2,6.6-2.6.2.1.5.2.8.2.8,0,1.5-.7,1.5-1.5s0-.5-.2-.7c1.6-1.9,2.6-4.2,2.8-6.8.6-.2,1.1-.7,1.1-1.4s-.5-1.3-1.1-1.4ZM1024.8,801.6c.3,0,.6,0,.8-.2,1.4,1.7,2.4,3.8,2.7,6.1-.4,0-.7.3-.9.7l-3.7-1.4s0,0,0-.1c0-.5-.2-.9-.6-1.2l1.6-3.8c0,0,.1,0,.2,0ZM1024,801.4l-1.6,3.8c0,0-.2,0-.2,0-.6,0-1.2.4-1.4.9l-6.7-1.5c0,0,0-.2,0-.3l9.6-3.3c.1.2.3.3.4.4ZM1016,798.2c.7,0,1.3-.5,1.4-1.2,2.3.2,4.3,1.1,6.1,2.4-.1.2-.2.5-.2.8s0,.1,0,.2l-9.6,3.3c0,0-.2-.2-.3-.3l2.5-5.2s0,0,0,0ZM1014.6,797.1c0,.4.4.8.7,1l-2.5,5.1c0,0-.2,0-.3,0-.3,0-.6,0-.8.3l-2.9-2.4c0-.2.1-.4.1-.6s0-.5-.2-.7c1.7-1.3,3.7-2.2,5.9-2.5ZM1005.3,808.6l6.1-3.1c.3.3.7.6,1.2.6l2.1,6.6c-.1,0-.2.2-.3.4l-9-3.7c0-.1,0-.3,0-.4s0-.2,0-.3ZM1006.7,801.6c.2.1.5.2.7.2s.7-.1.9-.3l2.9,2.4c-.1.2-.2.5-.2.7s0,.2,0,.3l-6.1,3.1c-.2-.2-.5-.4-.8-.5.3-2.2,1.2-4.2,2.5-5.9ZM1007.4,816.1c-.3,0-.5,0-.7.2-1.3-1.7-2.2-3.8-2.4-6,.3,0,.6-.2.8-.5l9.1,3.8c0,0,0,.1,0,.2,0,.2,0,.3,0,.5l-5.5,2.6c-.2-.5-.7-.8-1.3-.8ZM1014.6,820.9c-2.3-.3-4.3-1.2-6-2.6.1-.2.2-.5.2-.8s0,0,0,0l5.7-2.7c.1.1.3.3.5.3l.3,4.9c-.4.2-.6.5-.8.9ZM1015.2,812.4l-2-6.5c.3-.1.5-.4.7-.7l6.8,1.6c0,.2.1.5.2.7l-4.7,5.1c-.2-.1-.5-.2-.7-.2s-.2,0-.3,0ZM1017.4,821c-.1-.6-.7-1.1-1.4-1.1s0,0,0,0l-.3-4.6c.3,0,.7-.2.9-.4l6.8,3s0,0,0,0c0,.3,0,.5.2.8-1.7,1.3-3.8,2.2-6.1,2.4ZM1023.5,817.1l-6.6-2.9c0-.1,0-.3,0-.5,0-.3,0-.6-.3-.8l4.6-5.1c.2.1.5.2.8.2s.1,0,.2,0l1.7,8.5c-.2.1-.4.3-.5.6ZM1025.6,816.6c-.2-.2-.5-.2-.8-.2s-.1,0-.2,0l-1.7-8.5c.2-.1.3-.3.5-.5l3.7,1.4s0,0,0,.1c0,.7.5,1.3,1.2,1.4-.3,2.4-1.2,4.5-2.6,6.3Z"/>
    </g>
  </g>
</svg>